# xmcd CD database file
#
# Track frame offsets:
#	150
#	23540
#	44605
#	67998
#
# Disc length: 1184 seconds
#
# Revision: 1
# Processed by: cddbd v1.5.1PL0 Copyright (c) Steve Scherf et al.
# Submitted via: CDex 1.51
#
DISCID=2a049e04
DTITLE=マニ☆ラバ - 青森駅
DYEAR=2005
DGENRE=JPop
TTITLE0=青森駅
TTITLE1=友よ
TTITLE2=青森駅 （Instrumental Version)
TTITLE3=友よ （Instrumental Version)
EXTD=YEAR: 2005
EXTT0=
EXTT1=
EXTT2=
EXTT3=
PLAYORDER=
